<svg width="22" height="18" viewBox="0 0 22 18" fill="none" xmlns="http://www.w3.org/2000/svg">
<g clip-path="url(#clip0_1024_1745)">
<path d="M9.625 12.7031C9.625 13.1328 9.51221 13.498 9.28662 13.7988C9.06104 14.0996 8.79069 14.25 8.47559 14.25H3.89941C3.58431 14.25 3.31396 14.0996 3.08838 13.7988C2.86279 13.498 2.75 13.1328 2.75 12.7031C2.75 12.2812 2.77686 11.8887 2.83057 11.5254C2.88428 11.1621 2.97201 10.8105 3.09375 10.4707C3.21549 10.1309 3.39811 9.86328 3.6416 9.66797C3.88509 9.47266 4.17513 9.375 4.51172 9.375C4.97005 9.875 5.52865 10.125 6.1875 10.125C6.84635 10.125 7.40495 9.875 7.86328 9.375C8.19987 9.375 8.48991 9.47266 8.7334 9.66797C8.97689 9.86328 9.1595 10.1309 9.28125 10.4707C9.403 10.8105 9.49072 11.1621 9.54443 11.5254C9.59814 11.8887 9.625 12.2812 9.625 12.7031ZM8.25 7.5C8.25 8.125 8.04948 8.65625 7.64844 9.09375C7.2474 9.53125 6.76042 9.75 6.1875 9.75C5.61458 9.75 5.1276 9.53125 4.72656 9.09375C4.32552 8.65625 4.125 8.125 4.125 7.5C4.125 6.875 4.32552 6.34375 4.72656 5.90625C5.1276 5.46875 5.61458 5.25 6.1875 5.25C6.76042 5.25 7.2474 5.46875 7.64844 5.90625C8.04948 6.34375 8.25 6.875 8.25 7.5ZM19.25 12.375V13.125C19.25 13.2344 19.2178 13.3242 19.1533 13.3945C19.0889 13.4648 19.0065 13.5 18.9062 13.5H11.3438C11.2435 13.5 11.1611 13.4648 11.0967 13.3945C11.0322 13.3242 11 13.2344 11 13.125V12.375C11 12.2656 11.0322 12.1758 11.0967 12.1055C11.1611 12.0352 11.2435 12 11.3438 12H18.9062C19.0065 12 19.0889 12.0352 19.1533 12.1055C19.2178 12.1758 19.25 12.2656 19.25 12.375ZM15.125 9.375V10.125C15.125 10.2344 15.0928 10.3242 15.0283 10.3945C14.9639 10.4648 14.8815 10.5 14.7812 10.5H11.3438C11.2435 10.5 11.1611 10.4648 11.0967 10.3945C11.0322 10.3242 11 10.2344 11 10.125V9.375C11 9.26562 11.0322 9.17578 11.0967 9.10547C11.1611 9.03516 11.2435 9 11.3438 9H14.7812C14.8815 9 14.9639 9.03516 15.0283 9.10547C15.0928 9.17578 15.125 9.26562 15.125 9.375ZM19.25 9.375V10.125C19.25 10.2344 19.2178 10.3242 19.1533 10.3945C19.0889 10.4648 19.0065 10.5 18.9062 10.5H16.8438C16.7435 10.5 16.6611 10.4648 16.5967 10.3945C16.5322 10.3242 16.5 10.2344 16.5 10.125V9.375C16.5 9.26562 16.5322 9.17578 16.5967 9.10547C16.6611 9.03516 16.7435 9 16.8438 9H18.9062C19.0065 9 19.0889 9.03516 19.1533 9.10547C19.2178 9.17578 19.25 9.26562 19.25 9.375ZM19.25 6.375V7.125C19.25 7.23438 19.2178 7.32422 19.1533 7.39453C19.0889 7.46484 19.0065 7.5 18.9062 7.5H11.3438C11.2435 7.5 11.1611 7.46484 11.0967 7.39453C11.0322 7.32422 11 7.23438 11 7.125V6.375C11 6.26562 11.0322 6.17578 11.0967 6.10547C11.1611 6.03516 11.2435 6 11.3438 6H18.9062C19.0065 6 19.0889 6.03516 19.1533 6.10547C19.2178 6.17578 19.25 6.26562 19.25 6.375ZM20.625 16.125V3H1.375V16.125C1.375 16.2266 1.40902 16.3145 1.47705 16.3887C1.54508 16.4629 1.62565 16.5 1.71875 16.5H20.2812C20.3743 16.5 20.4549 16.4629 20.5229 16.3887C20.591 16.3145 20.625 16.2266 20.625 16.125ZM22 1.875V16.125C22 16.6406 21.8317 17.082 21.4951 17.4492C21.1585 17.8164 20.7539 18 20.2812 18H1.71875C1.24609 18 0.841471 17.8164 0.504883 17.4492C0.168294 17.082 0 16.6406 0 16.125V1.875C0 1.35938 0.168294 0.917969 0.504883 0.550781C0.841471 0.183594 1.24609 0 1.71875 0H20.2812C20.7539 0 21.1585 0.183594 21.4951 0.550781C21.8317 0.917969 22 1.35938 22 1.875Z" fill="black"/>
</g>
<defs>
<clipPath id="clip0_1024_1745">
<rect width="22" height="18" fill="white"/>
</clipPath>
</defs>
</svg>
