<svg width="18" height="13" viewBox="0 0 18 13" fill="none" xmlns="http://www.w3.org/2000/svg">
<path d="M8.17969 8.82812C8.17969 9.50521 8.01562 10.0938 7.6875 10.5938C7.35938 11.0938 6.88021 11.4792 6.25 11.75C5.625 12.0208 4.86458 12.1562 3.96875 12.1562C3.57292 12.1562 3.1849 12.1302 2.80469 12.0781C2.42969 12.026 2.06771 11.9505 1.71875 11.8516C1.375 11.7474 1.04688 11.6198 0.734375 11.4688V9.21875C1.27604 9.45833 1.83854 9.67448 2.42188 9.86719C3.00521 10.0599 3.58333 10.1562 4.15625 10.1562C4.55208 10.1562 4.86979 10.1042 5.10938 10C5.35417 9.89583 5.53125 9.7526 5.64062 9.57031C5.75 9.38802 5.80469 9.17969 5.80469 8.94531C5.80469 8.65885 5.70833 8.41406 5.51562 8.21094C5.32292 8.00781 5.05729 7.81771 4.71875 7.64062C4.38542 7.46354 4.00781 7.27344 3.58594 7.07031C3.32031 6.94531 3.03125 6.79427 2.71875 6.61719C2.40625 6.4349 2.10938 6.21354 1.82812 5.95312C1.54688 5.69271 1.3151 5.3776 1.13281 5.00781C0.955729 4.63281 0.867188 4.1849 0.867188 3.66406C0.867188 2.98177 1.02344 2.39844 1.33594 1.91406C1.64844 1.42969 2.09375 1.0599 2.67188 0.804688C3.25521 0.544271 3.94271 0.414062 4.73438 0.414062C5.32812 0.414062 5.89323 0.484375 6.42969 0.625C6.97135 0.760417 7.53646 0.958333 8.125 1.21875L7.34375 3.10156C6.81771 2.88802 6.34635 2.72396 5.92969 2.60938C5.51302 2.48958 5.08854 2.42969 4.65625 2.42969C4.35417 2.42969 4.09635 2.47917 3.88281 2.57812C3.66927 2.67188 3.50781 2.80729 3.39844 2.98438C3.28906 3.15625 3.23438 3.35677 3.23438 3.58594C3.23438 3.85677 3.3125 4.08594 3.46875 4.27344C3.63021 4.45573 3.86979 4.63281 4.1875 4.80469C4.51042 4.97656 4.91146 5.17708 5.39062 5.40625C5.97396 5.68229 6.47135 5.97135 6.88281 6.27344C7.29948 6.57031 7.61979 6.92188 7.84375 7.32812C8.06771 7.72917 8.17969 8.22917 8.17969 8.82812ZM10.25 12V0.578125H12.6719V10H17.3047V12H10.25Z" fill="black"/>
</svg>
