<svg width="91" height="59" viewBox="0 0 91 59" fill="none" xmlns="http://www.w3.org/2000/svg">
<g clip-path="url(#clip0_5001_1767)">
<path d="M70 43.9434C69.6907 43.9434 69.4988 43.9434 69.3069 43.9434C67.1955 43.9434 65.0735 43.9321 62.9622 43.9547C62.5144 43.9547 62.2584 43.7963 62.0452 43.3662C60.2431 39.8354 58.4197 36.3272 56.6069 32.8076C55.242 30.1708 53.8878 27.5226 52.5016 24.8858C50.7421 21.536 48.94 18.1975 47.1806 14.8364C46.4022 13.3539 45.7304 11.8148 44.9626 10.3323C44.3762 9.17798 43.5658 8.20473 42.5847 7.38992C41.6144 6.58642 40.5054 6.26955 39.3005 6.26955C35.515 6.26955 31.7295 6.3035 27.9441 6.31481C25.5662 6.32613 23.1776 6.31481 20.7997 6.31481C20 6.31481 20 6.31481 19.9893 5.44341C19.9893 3.8251 20 2.19547 19.9786 0.57716C19.9893 0.135802 20.1279 0 20.5545 0C26.9524 0.0113169 33.3504 -0.0226337 39.7483 0.0339506C41.7423 0.0452675 43.6297 0.690329 45.3465 1.8107C46.0183 2.25206 46.0183 2.26337 46.4022 1.56173C46.6368 1.12037 46.8714 0.679012 47.1593 0.113169C54.7728 14.7232 62.3438 29.2654 70 43.9434Z" fill="#5BB28B"/>
<path d="M39.9935 18.65C39.7483 19.1479 39.5457 19.578 39.3217 19.9967C38.5327 21.5131 37.7329 23.0183 36.9545 24.5461C36.7732 24.9082 36.528 24.9761 36.1761 24.9761C33.0517 24.9648 29.9274 24.9761 26.7924 24.9761C25.9607 24.9761 25.95 24.9874 25.95 25.8475C25.95 29.4689 25.95 33.0903 25.95 36.7117C25.95 37.3907 26.014 37.4586 26.6431 37.4699C27.7734 37.4812 28.9144 37.4699 30.1833 37.4699C29.9167 37.9905 29.6928 38.4432 29.4582 38.8959C28.6798 40.3784 27.9121 41.8609 27.1123 43.3321C27.0057 43.5245 26.7178 43.7168 26.5045 43.7168C24.5638 43.7508 22.6337 43.7168 20.693 43.7508C20.1172 43.7621 20.1812 43.3887 20.1812 43.0039C20.1812 37.651 20.1812 32.2981 20.1812 26.9339C20.1812 21.4452 20.1812 15.9566 20.1812 10.4679C20.1812 9.58516 20.1812 9.58516 20.9916 9.58516C22.4311 9.58516 23.8707 9.60779 25.3102 9.57384C25.7901 9.56252 25.9607 9.70964 25.9607 10.2415C25.9393 12.7539 25.95 15.2549 25.95 17.7673C25.95 18.5821 25.9713 18.5708 26.7178 18.5708C30.9617 18.5594 35.2057 18.5594 39.4604 18.5708C39.6203 18.5821 39.7696 18.616 39.9935 18.65Z" fill="#133250"/>
<path d="M39.9722 25.2704C41.0279 23.256 41.9982 21.3661 42.9899 19.5101C43.2245 19.0574 43.3311 18.6953 43.0112 18.2313C42.702 17.7786 42.4674 17.258 42.2541 16.7375C42.1688 16.5451 42.1688 16.2169 42.2648 16.0471C43.2032 14.5759 43.4164 12.9689 43.1392 11.0903C43.3631 11.5091 43.5231 11.792 43.683 12.0749C43.8536 12.3805 44.0136 12.6973 44.1735 13.0142C45.1865 14.9607 46.2102 16.8959 47.2019 18.8537C47.2979 19.0348 47.2659 19.363 47.1699 19.5667C47.01 19.9175 46.754 20.2117 46.5514 20.506C47.3299 21.2076 48.1296 21.83 48.8227 22.5656C50.8594 24.7158 51.9897 27.3074 52.235 30.363C52.5335 34.1994 51.4032 37.5039 48.908 40.2313C46.9566 42.3815 44.5361 43.6829 41.6783 43.8866C40.6973 43.9545 39.7056 43.8866 38.7139 43.8979C36.7626 43.9206 34.8112 43.9659 32.8598 43.9998C32.0068 44.0111 31.1537 43.9998 30.2153 43.9998C30.6845 43.0831 31.111 42.2231 31.5589 41.3743C32.1347 40.2652 32.7319 39.1788 33.2863 38.0584C33.4463 37.7303 33.6276 37.6058 33.9795 37.6058C36.1654 37.6284 38.3514 37.5492 40.5374 37.6623C42.7127 37.7755 45.0906 36.0554 45.9436 33.8259C47.2659 30.363 45.4851 26.3907 42.0835 25.3835C41.7956 25.293 41.4864 25.293 41.1878 25.2817C40.8253 25.2591 40.4521 25.2704 39.9722 25.2704Z" fill="#133250"/>
</g>
<path d="M4.08984 55.4141C4.08984 55.7526 4.00781 56.0469 3.84375 56.2969C3.67969 56.5469 3.4401 56.7396 3.125 56.875C2.8125 57.0104 2.43229 57.0781 1.98438 57.0781C1.78646 57.0781 1.59245 57.0651 1.40234 57.0391C1.21484 57.013 1.03385 56.9753 0.859375 56.9258C0.6875 56.8737 0.523438 56.8099 0.367188 56.7344V55.6094C0.638021 55.7292 0.919271 55.8372 1.21094 55.9336C1.5026 56.0299 1.79167 56.0781 2.07812 56.0781C2.27604 56.0781 2.4349 56.0521 2.55469 56C2.67708 55.9479 2.76562 55.8763 2.82031 55.7852C2.875 55.694 2.90234 55.5898 2.90234 55.4727C2.90234 55.3294 2.85417 55.207 2.75781 55.1055C2.66146 55.0039 2.52865 54.9089 2.35938 54.8203C2.19271 54.7318 2.00391 54.6367 1.79297 54.5352C1.66016 54.4727 1.51562 54.3971 1.35938 54.3086C1.20312 54.2174 1.05469 54.1068 0.914062 53.9766C0.773438 53.8464 0.657552 53.6888 0.566406 53.5039C0.477865 53.3164 0.433594 53.0924 0.433594 52.832C0.433594 52.4909 0.511719 52.1992 0.667969 51.957C0.824219 51.7148 1.04688 51.5299 1.33594 51.4023C1.6276 51.2721 1.97135 51.207 2.36719 51.207C2.66406 51.207 2.94661 51.2422 3.21484 51.3125C3.48568 51.3802 3.76823 51.4792 4.0625 51.6094L3.67188 52.5508C3.40885 52.444 3.17318 52.362 2.96484 52.3047C2.75651 52.2448 2.54427 52.2148 2.32812 52.2148C2.17708 52.2148 2.04818 52.2396 1.94141 52.2891C1.83464 52.3359 1.75391 52.4036 1.69922 52.4922C1.64453 52.5781 1.61719 52.6784 1.61719 52.793C1.61719 52.9284 1.65625 53.043 1.73438 53.1367C1.8151 53.2279 1.9349 53.3164 2.09375 53.4023C2.25521 53.4883 2.45573 53.5885 2.69531 53.7031C2.98698 53.8411 3.23568 53.9857 3.44141 54.1367C3.64974 54.2852 3.8099 54.4609 3.92188 54.6641C4.03385 54.8646 4.08984 55.1146 4.08984 55.4141ZM6.22266 50.9219V52.1602C6.22266 52.3763 6.21484 52.582 6.19922 52.7773C6.1862 52.9727 6.17578 53.1107 6.16797 53.1914H6.23047C6.32422 53.0404 6.4349 52.918 6.5625 52.8242C6.69271 52.7305 6.83594 52.6615 6.99219 52.6172C7.14844 52.5729 7.31641 52.5508 7.49609 52.5508C7.8112 52.5508 8.08594 52.6068 8.32031 52.7188C8.55469 52.8281 8.73698 53.0013 8.86719 53.2383C8.9974 53.4727 9.0625 53.7773 9.0625 54.1523V57H7.87109V54.4492C7.87109 54.1367 7.8138 53.901 7.69922 53.7422C7.58464 53.5833 7.40755 53.5039 7.16797 53.5039C6.92839 53.5039 6.73958 53.5599 6.60156 53.6719C6.46354 53.7812 6.36589 53.944 6.30859 54.1602C6.2513 54.3737 6.22266 54.6354 6.22266 54.9453V57H5.03125V50.9219H6.22266ZM14.2578 54.8086C14.2578 55.1732 14.2083 55.4961 14.1094 55.7773C14.013 56.0586 13.8711 56.2969 13.6836 56.4922C13.4987 56.6849 13.2747 56.8307 13.0117 56.9297C12.7513 57.0286 12.457 57.0781 12.1289 57.0781C11.8216 57.0781 11.5391 57.0286 11.2812 56.9297C11.026 56.8307 10.8034 56.6849 10.6133 56.4922C10.4258 56.2969 10.2799 56.0586 10.1758 55.7773C10.0742 55.4961 10.0234 55.1732 10.0234 54.8086C10.0234 54.3242 10.1094 53.9141 10.2812 53.5781C10.4531 53.2422 10.6979 52.987 11.0156 52.8125C11.3333 52.638 11.7122 52.5508 12.1523 52.5508C12.5612 52.5508 12.9232 52.638 13.2383 52.8125C13.556 52.987 13.8047 53.2422 13.9844 53.5781C14.1667 53.9141 14.2578 54.3242 14.2578 54.8086ZM11.2383 54.8086C11.2383 55.0951 11.2695 55.3359 11.332 55.5312C11.3945 55.7266 11.4922 55.8737 11.625 55.9727C11.7578 56.0716 11.931 56.1211 12.1445 56.1211C12.3555 56.1211 12.526 56.0716 12.6562 55.9727C12.7891 55.8737 12.8854 55.7266 12.9453 55.5312C13.0078 55.3359 13.0391 55.0951 13.0391 54.8086C13.0391 54.5195 13.0078 54.2799 12.9453 54.0898C12.8854 53.8971 12.7891 53.7526 12.6562 53.6562C12.5234 53.5599 12.3503 53.5117 12.1367 53.5117C11.8216 53.5117 11.5924 53.6198 11.4492 53.8359C11.3086 54.0521 11.2383 54.3763 11.2383 54.8086ZM17.6719 52.5508C18.1641 52.5508 18.5612 52.7422 18.8633 53.125C19.168 53.5078 19.3203 54.069 19.3203 54.8086C19.3203 55.3034 19.2487 55.7201 19.1055 56.0586C18.9622 56.3945 18.7643 56.6484 18.5117 56.8203C18.2591 56.9922 17.9688 57.0781 17.6406 57.0781C17.4297 57.0781 17.2487 57.0521 17.0977 57C16.9466 56.9453 16.8177 56.8763 16.7109 56.793C16.6042 56.707 16.5117 56.6159 16.4336 56.5195H16.3711C16.3919 56.6237 16.4076 56.7305 16.418 56.8398C16.4284 56.9492 16.4336 57.056 16.4336 57.1602V58.9219H15.2422V52.6328H16.2109L16.3789 53.1992H16.4336C16.5117 53.082 16.6068 52.974 16.7188 52.875C16.8307 52.776 16.9648 52.6979 17.1211 52.6406C17.2799 52.5807 17.4635 52.5508 17.6719 52.5508ZM17.2891 53.5039C17.0807 53.5039 16.9154 53.5469 16.793 53.6328C16.6706 53.7188 16.5807 53.8477 16.5234 54.0195C16.4688 54.1914 16.4388 54.4089 16.4336 54.6719V54.8008C16.4336 55.082 16.4596 55.3203 16.5117 55.5156C16.5664 55.7109 16.6562 55.8594 16.7812 55.9609C16.9089 56.0625 17.0833 56.1133 17.3047 56.1133C17.487 56.1133 17.6367 56.0625 17.7539 55.9609C17.8711 55.8594 17.9583 55.7109 18.0156 55.5156C18.0755 55.3177 18.1055 55.0768 18.1055 54.793C18.1055 54.3659 18.0391 54.0443 17.9062 53.8281C17.7734 53.612 17.5677 53.5039 17.2891 53.5039ZM25.8477 55.4141C25.8477 55.7526 25.7656 56.0469 25.6016 56.2969C25.4375 56.5469 25.1979 56.7396 24.8828 56.875C24.5703 57.0104 24.1901 57.0781 23.7422 57.0781C23.5443 57.0781 23.3503 57.0651 23.1602 57.0391C22.9727 57.013 22.7917 56.9753 22.6172 56.9258C22.4453 56.8737 22.2812 56.8099 22.125 56.7344V55.6094C22.3958 55.7292 22.6771 55.8372 22.9688 55.9336C23.2604 56.0299 23.5495 56.0781 23.8359 56.0781C24.0339 56.0781 24.1927 56.0521 24.3125 56C24.4349 55.9479 24.5234 55.8763 24.5781 55.7852C24.6328 55.694 24.6602 55.5898 24.6602 55.4727C24.6602 55.3294 24.612 55.207 24.5156 55.1055C24.4193 55.0039 24.2865 54.9089 24.1172 54.8203C23.9505 54.7318 23.7617 54.6367 23.5508 54.5352C23.418 54.4727 23.2734 54.3971 23.1172 54.3086C22.9609 54.2174 22.8125 54.1068 22.6719 53.9766C22.5312 53.8464 22.4154 53.6888 22.3242 53.5039C22.2357 53.3164 22.1914 53.0924 22.1914 52.832C22.1914 52.4909 22.2695 52.1992 22.4258 51.957C22.582 51.7148 22.8047 51.5299 23.0938 51.4023C23.3854 51.2721 23.7292 51.207 24.125 51.207C24.4219 51.207 24.7044 51.2422 24.9727 51.3125C25.2435 51.3802 25.526 51.4792 25.8203 51.6094L25.4297 52.5508C25.1667 52.444 24.931 52.362 24.7227 52.3047C24.5143 52.2448 24.3021 52.2148 24.0859 52.2148C23.9349 52.2148 23.806 52.2396 23.6992 52.2891C23.5924 52.3359 23.5117 52.4036 23.457 52.4922C23.4023 52.5781 23.375 52.6784 23.375 52.793C23.375 52.9284 23.4141 53.043 23.4922 53.1367C23.5729 53.2279 23.6927 53.3164 23.8516 53.4023C24.013 53.4883 24.2135 53.5885 24.4531 53.7031C24.7448 53.8411 24.9935 53.9857 25.1992 54.1367C25.4076 54.2852 25.5677 54.4609 25.6797 54.6641C25.7917 54.8646 25.8477 55.1146 25.8477 55.4141ZM31.918 52.5508C32.4128 52.5508 32.7865 52.6784 33.0391 52.9336C33.2943 53.1862 33.4219 53.5924 33.4219 54.1523V57H32.2266V54.4492C32.2266 54.1367 32.1732 53.901 32.0664 53.7422C31.9596 53.5833 31.7943 53.5039 31.5703 53.5039C31.2552 53.5039 31.0312 53.6172 30.8984 53.8438C30.7656 54.0677 30.6992 54.3893 30.6992 54.8086V57H29.5078V54.4492C29.5078 54.2409 29.4844 54.0664 29.4375 53.9258C29.3906 53.7852 29.319 53.6797 29.2227 53.6094C29.1263 53.5391 29.0026 53.5039 28.8516 53.5039C28.6302 53.5039 28.4557 53.5599 28.3281 53.6719C28.2031 53.7812 28.1133 53.944 28.0586 54.1602C28.0065 54.3737 27.9805 54.6354 27.9805 54.9453V57H26.7891V52.6328H27.6992L27.8594 53.1914H27.9258C28.0143 53.0404 28.125 52.918 28.2578 52.8242C28.3932 52.7305 28.5417 52.6615 28.7031 52.6172C28.8646 52.5729 29.0286 52.5508 29.1953 52.5508C29.5156 52.5508 29.7865 52.6029 30.0078 52.707C30.2318 52.8112 30.4036 52.9727 30.5234 53.1914H30.6289C30.7591 52.9674 30.9427 52.8047 31.1797 52.7031C31.4193 52.6016 31.6654 52.5508 31.918 52.5508ZM36.4375 52.543C37.0234 52.543 37.4727 52.6706 37.7852 52.9258C38.0977 53.181 38.2539 53.569 38.2539 54.0898V57H37.4219L37.1914 56.4062H37.1602C37.0352 56.5625 36.9076 56.6901 36.7773 56.7891C36.6471 56.888 36.4974 56.9609 36.3281 57.0078C36.1589 57.0547 35.9531 57.0781 35.7109 57.0781C35.4531 57.0781 35.2214 57.0286 35.0156 56.9297C34.8125 56.8307 34.6523 56.6797 34.5352 56.4766C34.418 56.2708 34.3594 56.0104 34.3594 55.6953C34.3594 55.2318 34.5221 54.8906 34.8477 54.6719C35.1732 54.4505 35.6615 54.3281 36.3125 54.3047L37.0703 54.2812V54.0898C37.0703 53.8607 37.0104 53.6927 36.8906 53.5859C36.7708 53.4792 36.6042 53.4258 36.3906 53.4258C36.1797 53.4258 35.9727 53.4557 35.7695 53.5156C35.5664 53.5755 35.3633 53.651 35.1602 53.7422L34.7656 52.9375C34.9974 52.8151 35.2565 52.7188 35.543 52.6484C35.832 52.5781 36.1302 52.543 36.4375 52.543ZM37.0703 54.9766L36.6094 54.9922C36.224 55.0026 35.9557 55.0716 35.8047 55.1992C35.6562 55.3268 35.582 55.4948 35.582 55.7031C35.582 55.8854 35.6354 56.0156 35.7422 56.0938C35.849 56.1693 35.9883 56.207 36.1602 56.207C36.4154 56.207 36.6302 56.1315 36.8047 55.9805C36.9818 55.8294 37.0703 55.6146 37.0703 55.3359V54.9766ZM41.9219 52.5508C41.9818 52.5508 42.0508 52.5547 42.1289 52.5625C42.2096 52.5677 42.2747 52.5755 42.3242 52.5859L42.2344 53.7031C42.1953 53.6901 42.1393 53.681 42.0664 53.6758C41.9961 53.668 41.9349 53.6641 41.8828 53.6641C41.7292 53.6641 41.5794 53.6836 41.4336 53.7227C41.2904 53.7617 41.1615 53.8255 41.0469 53.9141C40.9323 54 40.8411 54.1146 40.7734 54.2578C40.7083 54.3984 40.6758 54.5716 40.6758 54.7773V57H39.4844V52.6328H40.3867L40.5625 53.3672H40.6211C40.707 53.2188 40.8138 53.0833 40.9414 52.9609C41.0716 52.8359 41.2188 52.737 41.3828 52.6641C41.5495 52.5885 41.7292 52.5508 41.9219 52.5508ZM44.957 56.1289C45.0872 56.1289 45.2135 56.1159 45.3359 56.0898C45.4609 56.0638 45.5846 56.0312 45.707 55.9922V56.8789C45.5794 56.9362 45.4206 56.9831 45.2305 57.0195C45.043 57.0586 44.8372 57.0781 44.6133 57.0781C44.3529 57.0781 44.1185 57.0365 43.9102 56.9531C43.7044 56.8672 43.5417 56.7201 43.4219 56.5117C43.3047 56.3008 43.2461 56.0078 43.2461 55.6328V53.5273H42.6758V53.0234L43.332 52.625L43.6758 51.7031H44.4375V52.6328H45.6602V53.5273H44.4375V55.6328C44.4375 55.7995 44.4844 55.9245 44.5781 56.0078C44.6745 56.0885 44.8008 56.1289 44.957 56.1289ZM47.7031 56.0703L47.7617 56.1602C47.7148 56.3477 47.6536 56.5495 47.5781 56.7656C47.5052 56.9818 47.4245 57.1979 47.3359 57.4141C47.25 57.6302 47.1628 57.8359 47.0742 58.0312H46.2148C46.2669 57.8203 46.3177 57.599 46.3672 57.3672C46.4167 57.1354 46.4622 56.9076 46.5039 56.6836C46.5482 56.4596 46.5833 56.2552 46.6094 56.0703H47.7031ZM51.0469 57V51.2891H52.2578V56H54.5742V57H51.0469ZM56.668 52.6328V57H55.4766V52.6328H56.668ZM56.0742 50.9219C56.2513 50.9219 56.4036 50.9635 56.5312 51.0469C56.6589 51.1276 56.7227 51.2799 56.7227 51.5039C56.7227 51.7253 56.6589 51.8789 56.5312 51.9648C56.4036 52.0482 56.2513 52.0898 56.0742 52.0898C55.8945 52.0898 55.7409 52.0482 55.6133 51.9648C55.4883 51.8789 55.4258 51.7253 55.4258 51.5039C55.4258 51.2799 55.4883 51.1276 55.6133 51.0469C55.7409 50.9635 55.8945 50.9219 56.0742 50.9219ZM58.9609 57L57.2969 52.6328H58.543L59.3867 55.1211C59.4336 55.2669 59.4701 55.4206 59.4961 55.582C59.5247 55.7435 59.5443 55.888 59.5547 56.0156H59.5859C59.5938 55.8776 59.612 55.7305 59.6406 55.5742C59.6719 55.418 59.7122 55.2669 59.7617 55.1211L60.6016 52.6328H61.8477L60.1836 57H58.9609ZM64.2773 52.5508C64.681 52.5508 65.0286 52.6289 65.3203 52.7852C65.612 52.9388 65.8372 53.1628 65.9961 53.457C66.1549 53.7513 66.2344 54.1107 66.2344 54.5352V55.1133H63.418C63.431 55.4492 63.5312 55.7135 63.7188 55.9062C63.9089 56.0964 64.1719 56.1914 64.5078 56.1914C64.7865 56.1914 65.0417 56.1628 65.2734 56.1055C65.5052 56.0482 65.7435 55.9622 65.9883 55.8477V56.7695C65.7721 56.8763 65.5456 56.9544 65.3086 57.0039C65.0742 57.0534 64.7891 57.0781 64.4531 57.0781C64.0156 57.0781 63.6276 56.9974 63.2891 56.8359C62.9531 56.6745 62.6888 56.4284 62.4961 56.0977C62.306 55.7669 62.2109 55.3503 62.2109 54.8477C62.2109 54.3372 62.2969 53.9128 62.4688 53.5742C62.6432 53.2331 62.8854 52.9779 63.1953 52.8086C63.5052 52.6367 63.8659 52.5508 64.2773 52.5508ZM64.2852 53.3984C64.0534 53.3984 63.8607 53.4727 63.707 53.6211C63.556 53.7695 63.4688 54.0026 63.4453 54.3203H65.1172C65.1146 54.1432 65.082 53.9857 65.0195 53.8477C64.9596 53.7096 64.8685 53.6003 64.7461 53.5195C64.6263 53.4388 64.4727 53.3984 64.2852 53.3984ZM69.375 57V51.2891H70.5859V56H72.9023V57H69.375ZM75.5938 52.543C76.1797 52.543 76.6289 52.6706 76.9414 52.9258C77.2539 53.181 77.4102 53.569 77.4102 54.0898V57H76.5781L76.3477 56.4062H76.3164C76.1914 56.5625 76.0638 56.6901 75.9336 56.7891C75.8034 56.888 75.6536 56.9609 75.4844 57.0078C75.3151 57.0547 75.1094 57.0781 74.8672 57.0781C74.6094 57.0781 74.3776 57.0286 74.1719 56.9297C73.9688 56.8307 73.8086 56.6797 73.6914 56.4766C73.5742 56.2708 73.5156 56.0104 73.5156 55.6953C73.5156 55.2318 73.6784 54.8906 74.0039 54.6719C74.3294 54.4505 74.8177 54.3281 75.4688 54.3047L76.2266 54.2812V54.0898C76.2266 53.8607 76.1667 53.6927 76.0469 53.5859C75.9271 53.4792 75.7604 53.4258 75.5469 53.4258C75.3359 53.4258 75.1289 53.4557 74.9258 53.5156C74.7227 53.5755 74.5195 53.651 74.3164 53.7422L73.9219 52.9375C74.1536 52.8151 74.4128 52.7188 74.6992 52.6484C74.9883 52.5781 75.2865 52.543 75.5938 52.543ZM76.2266 54.9766L75.7656 54.9922C75.3802 55.0026 75.112 55.0716 74.9609 55.1992C74.8125 55.3268 74.7383 55.4948 74.7383 55.7031C74.7383 55.8854 74.7917 56.0156 74.8984 56.0938C75.0052 56.1693 75.1445 56.207 75.3164 56.207C75.5716 56.207 75.7865 56.1315 75.9609 55.9805C76.138 55.8294 76.2266 55.6146 76.2266 55.3359V54.9766ZM81.0781 52.5508C81.138 52.5508 81.207 52.5547 81.2852 52.5625C81.3659 52.5677 81.431 52.5755 81.4805 52.5859L81.3906 53.7031C81.3516 53.6901 81.2956 53.681 81.2227 53.6758C81.1523 53.668 81.0911 53.6641 81.0391 53.6641C80.8854 53.6641 80.7357 53.6836 80.5898 53.7227C80.4466 53.7617 80.3177 53.8255 80.2031 53.9141C80.0885 54 79.9974 54.1146 79.9297 54.2578C79.8646 54.3984 79.832 54.5716 79.832 54.7773V57H78.6406V52.6328H79.543L79.7188 53.3672H79.7773C79.8633 53.2188 79.9701 53.0833 80.0977 52.9609C80.2279 52.8359 80.375 52.737 80.5391 52.6641C80.7057 52.5885 80.8854 52.5508 81.0781 52.5508ZM83.5508 58.9219C82.9414 58.9219 82.4753 58.8151 82.1523 58.6016C81.832 58.3906 81.6719 58.0938 81.6719 57.7109C81.6719 57.4479 81.7539 57.2279 81.918 57.0508C82.082 56.8737 82.3229 56.7474 82.6406 56.6719C82.5182 56.6198 82.4115 56.5352 82.3203 56.418C82.2292 56.2982 82.1836 56.1719 82.1836 56.0391C82.1836 55.8724 82.2318 55.7344 82.3281 55.625C82.4245 55.513 82.5638 55.4036 82.7461 55.2969C82.5169 55.1979 82.3346 55.0391 82.1992 54.8203C82.0664 54.6016 82 54.3438 82 54.0469C82 53.7292 82.069 53.4596 82.207 53.2383C82.3477 53.0143 82.5508 52.8438 82.8164 52.7266C83.0846 52.6094 83.4102 52.5508 83.793 52.5508C83.8737 52.5508 83.9674 52.556 84.0742 52.5664C84.181 52.5768 84.2786 52.5885 84.3672 52.6016C84.4583 52.6146 84.5195 52.625 84.5508 52.6328H86.0742V53.2383L85.3906 53.4141C85.4531 53.5104 85.5 53.6133 85.5312 53.7227C85.5625 53.832 85.5781 53.9479 85.5781 54.0703C85.5781 54.5391 85.4141 54.9049 85.0859 55.168C84.7604 55.4284 84.3073 55.5586 83.7266 55.5586C83.5885 55.5508 83.4583 55.5404 83.3359 55.5273C83.276 55.5742 83.2305 55.6237 83.1992 55.6758C83.168 55.7279 83.1523 55.7826 83.1523 55.8398C83.1523 55.8971 83.1758 55.9453 83.2227 55.9844C83.2721 56.0208 83.3451 56.0495 83.4414 56.0703C83.5404 56.0885 83.6628 56.0977 83.8086 56.0977H84.5508C85.0299 56.0977 85.3945 56.2005 85.6445 56.4062C85.8971 56.612 86.0234 56.9141 86.0234 57.3125C86.0234 57.8229 85.8099 58.2188 85.3828 58.5C84.9583 58.7812 84.3477 58.9219 83.5508 58.9219ZM83.6016 58.1445C83.8854 58.1445 84.1289 58.1172 84.332 58.0625C84.5378 58.0104 84.6953 57.9349 84.8047 57.8359C84.9141 57.7396 84.9688 57.6237 84.9688 57.4883C84.9688 57.3789 84.9362 57.2917 84.8711 57.2266C84.8086 57.1641 84.7122 57.1198 84.582 57.0938C84.4544 57.0677 84.2904 57.0547 84.0898 57.0547H83.4727C83.3268 57.0547 83.1953 57.0781 83.0781 57.125C82.9635 57.1719 82.8724 57.237 82.8047 57.3203C82.737 57.4062 82.7031 57.5052 82.7031 57.6172C82.7031 57.7812 82.7812 57.9102 82.9375 58.0039C83.0964 58.0977 83.3177 58.1445 83.6016 58.1445ZM83.793 54.832C84.0169 54.832 84.181 54.763 84.2852 54.625C84.3893 54.487 84.4414 54.2995 84.4414 54.0625C84.4414 53.7995 84.3867 53.6029 84.2773 53.4727C84.1706 53.3398 84.0091 53.2734 83.793 53.2734C83.5742 53.2734 83.4102 53.3398 83.3008 53.4727C83.1914 53.6029 83.1367 53.7995 83.1367 54.0625C83.1367 54.2995 83.1901 54.487 83.2969 54.625C83.4062 54.763 83.5716 54.832 83.793 54.832ZM88.5977 52.5508C89.0013 52.5508 89.349 52.6289 89.6406 52.7852C89.9323 52.9388 90.1576 53.1628 90.3164 53.457C90.4753 53.7513 90.5547 54.1107 90.5547 54.5352V55.1133H87.7383C87.7513 55.4492 87.8516 55.7135 88.0391 55.9062C88.2292 56.0964 88.4922 56.1914 88.8281 56.1914C89.1068 56.1914 89.362 56.1628 89.5938 56.1055C89.8255 56.0482 90.0638 55.9622 90.3086 55.8477V56.7695C90.0924 56.8763 89.8659 56.9544 89.6289 57.0039C89.3945 57.0534 89.1094 57.0781 88.7734 57.0781C88.3359 57.0781 87.9479 56.9974 87.6094 56.8359C87.2734 56.6745 87.0091 56.4284 86.8164 56.0977C86.6263 55.7669 86.5312 55.3503 86.5312 54.8477C86.5312 54.3372 86.6172 53.9128 86.7891 53.5742C86.9635 53.2331 87.2057 52.9779 87.5156 52.8086C87.8255 52.6367 88.1862 52.5508 88.5977 52.5508ZM88.6055 53.3984C88.3737 53.3984 88.181 53.4727 88.0273 53.6211C87.8763 53.7695 87.7891 54.0026 87.7656 54.3203H89.4375C89.4349 54.1432 89.4023 53.9857 89.3398 53.8477C89.2799 53.7096 89.1888 53.6003 89.0664 53.5195C88.9466 53.4388 88.793 53.3984 88.6055 53.3984Z" fill="#153250"/>
<defs>
<clipPath id="clip0_5001_1767">
<rect width="50" height="44" fill="white" transform="translate(20)"/>
</clipPath>
</defs>
</svg>
